<?xml version="1.0" standalone="no"?><!DOCTYPE svg PUBLIC "-//W3C//DTD SVG 1.1//EN" "http://www.w3.org/Graphics/SVG/1.1/DTD/svg11.dtd"><svg t="1569392593273" class="icon" viewBox="0 0 1024 1024" version="1.1" xmlns="http://www.w3.org/2000/svg" p-id="1113" xmlns:xlink="http://www.w3.org/1999/xlink" width="200" height="200"><defs><style type="text/css"></style></defs><path d="M798.99648 962.56h-574.0544C119.5008 962.56 61.44 905.39008 61.44 801.49504V523.08992c-0.13312-69.75488 39.24992-133.75488 102.0928-165.888l36.8128 69.43744c-36.5568 18.67776-59.46368 55.88992-59.392 96.4608V801.4848c0 60.30336 22.75328 82.74944 83.98848 82.74944h574.0544c61.2352 0 83.99872-22.44608 83.99872-82.7392V523.07968c-0.14336-41.86112-24.54528-79.9744-62.83264-98.1504l34.44736-70.73792C920.3712 385.56672 962.27328 451.10272 962.56 523.08992v278.40512C962.5088 905.39008 904.448 962.56 798.99648 962.56zM207.08352 610.1504h39.5776v-458.1376c0.1024-49.98144 41.216-90.49088 91.9552-90.5728h346.70592c50.74944 0.08192 91.87328 40.58112 91.9552 90.58304v458.1376h39.58784v78.30528H207.08352v-78.31552z m119.0912 0h371.6096v-458.1376c0-6.7584-5.5808-12.25728-12.46208-12.25728H338.6368c-6.88128 0-12.46208 5.48864-12.46208 12.26752v458.1376zM630.5792 297.03168H393.4208v-78.4384h237.1584v78.4384z m0 142.53056H393.4208v-78.31552h237.1584v78.31552z" p-id="1114" fill="#e6e6e6"></path></svg>