<?xml version="1.0" standalone="no"?><!DOCTYPE svg PUBLIC "-//W3C//DTD SVG 1.1//EN" "http://www.w3.org/Graphics/SVG/1.1/DTD/svg11.dtd"><svg t="1569392802441" class="icon" viewBox="0 0 1024 1024" version="1.1" xmlns="http://www.w3.org/2000/svg" p-id="1881" xmlns:xlink="http://www.w3.org/1999/xlink" width="200" height="200"><defs><style type="text/css"></style></defs><path d="M940.669 376.261c-12.733-11.696-28.757-19.23-46.13-21.912v-57.414c0-62.38-50.75-113.13-113.13-113.13H511.885l-17.344-32.736c-7.931-15.078-23.358-24.439-40.302-24.439H129.585c-19.276 0-38.453 8.558-52.612 23.479-13.438 14.161-21.145 32.623-21.145 50.649v622.526c0 40.852 32.009 74.088 71.352 74.088h769.633c19.479 0 37.441-7.315 50.577-20.6 13.401-13.554 20.782-32.549 20.782-53.488V441.195c0-25.58-9.768-48.641-27.503-64.934z m-159.26-125.464c25.44 0 46.137 20.697 46.137 46.138v56.301H601.65l-54.272-102.438h234.031zM901.18 823.283c0 7.095-2.121 7.095-4.367 7.095H127.18c-1.736 0-4.36-2.829-4.36-7.095V200.874c0.382-2.867 4.789-7.253 6.766-7.253h311.687L543.302 386.2c11.131 20.978 32.801 34.017 56.567 34.027H880.24c4.914 0 20.939 1.512 20.939 20.968v382.088z" p-id="1882" fill="#e6e6e6"></path></svg>