<?xml version="1.0" standalone="no"?><!DOCTYPE svg PUBLIC "-//W3C//DTD SVG 1.1//EN" "http://www.w3.org/Graphics/SVG/1.1/DTD/svg11.dtd"><svg t="1569381272223" class="icon" viewBox="0 0 1024 1024" version="1.1" xmlns="http://www.w3.org/2000/svg" p-id="1598" xmlns:xlink="http://www.w3.org/1999/xlink" width="200" height="200"><defs><style type="text/css"></style></defs><path d="M804.122 523.245c-0.767-2.727-0.767-3.75-1.534-4.688-14.405-37.76-29.492-75.519-43.896-113.278-2.302-6.563-6.052-6.563-10.655-4.773-31.111 11.421-62.222 21.735-93.333 32.133-4.432 1.96-7.501 4.774-8.268 10.4l-20.457 84.042c-2.983 13.211-6.051 27.36-9.887 41.595 63.67-15.172 125.893-30.259 188.03-45.43zM347.002 89.906c2.216 2.813 3.75 3.75 4.433 5.71l277.698 274.716c2.216 2.898 7.5 3.836 11.25 2.898 21.31-6.648 42.619-14.234 63.758-21.735 2.983-1.023 6.05-2.898 10.654-3.75-22.758-21.736-43.982-41.596-65.205-62.393-73.56-70.746-147.117-140.64-220.676-211.47-2.301-1.876-5.967-4.774-8.268-4.774-24.292 5.711-47.817 13.297-73.558 20.798h-0.171z m219.056 464.536c1.535-4.774 3.069-7.501 3.069-10.314 9.12-36.907 17.388-74.667 27.275-111.489 3.069-10.313 0.768-15.086-5.966-21.735l-231.33-228.432c-19.69-19.86-39.38-38.697-59.154-58.557-1.45 2.813-2.216 5.71-2.983 8.524-11.422 34.946-22.758 69.893-34.947 104.84-2.983 8.523-2.216 13.126 3.836 18.752 81.144 80.292 162.289 161.522 243.348 242.751 18.923 17.9 37.078 36.822 56.938 55.66z m-114.3-540.993c19.603 17.9 219.055 211.556 329.692 318.186a50.971 50.971 0 0 1 10.654 16.11c23.525 60.432 47.732 120.864 70.49 182.234 8.268 22.587 1.534 42.362-21.31 47.135-32.56 7.501-65.886 16.025-98.446 23.61-40.914 9.462-81.827 18.838-122.058 29.322-11.422 2.727-21.99 4.688-33.413 8.438-9.802 3.836-16.62-0.852-23.44-7.5l-112.34-111.49c-78.843-78.331-156.92-156.748-235.763-235.08-12.87-13.211-15.172-23.61-9.035-42.532 18.923-56.597 37.845-114.217 56-170.813 4.006-16.365 15.172-28.469 28.81-31.197 31.963-8.523 92.566-27.36 124.444-35.799 10.57-2.898 13.553-4.773 21.139-2.898 6.052 2.898 9.887 8.524 14.405 12.274z m-32.731 936.487c65.887-15.94 130.41-32.049 194.764-48.158-16.621-53.784-32.56-105.693-49.182-157.601-36.31 12.785-72.45 26.423-108.42 40.572a11.763 11.763 0 0 0-6.818 8.523c-9.888 50.886-19.775 102.88-30.43 156.834l0.086-0.17z m-47.733-16.962c2.217-12.274 3.75-23.61 5.967-33.924l22.758-119.074c1.534-5.54 0-8.439-3.07-12.274-86.342-95.209-171.92-191.525-257.667-286.904-11.421-12.189-22.758-25.4-34.946-38.697-15.854 48.158-31.026 95.293-46.113 142.514-0.852 2.898 1.534 8.524 3.069 11.422 12.785 15.086 26.508 29.236 40.06 44.322l215.392 234.143c18.155 17.985 35.628 37.845 54.55 58.557z m-227.58-530.679c13.724 15.172 25.912 29.322 38.783 43.47 43.982 49.182 88.645 98.192 132.627 148.311 37.93 42.448 76.542 84.895 114.472 128.365 3.835 3.75 6.819 4.774 12.103 2.813 40.914-15.172 81.912-31.11 123.592-45.345 22.758-8.524 32.646-0.853 40.914 24.633 21.309 68.87 42.532 136.889 63.756 205.76 7.67 24.547 0 42.532-20.457 48.158-72.791 17.9-144.815 35.799-217.607 53.869-14.405 3.75-28.128 7.5-42.447 10.313-7.671 1.96-14.405-1.79-20.457-8.438l-138.764-150.1c-59.24-64.183-117.71-128.366-176.694-191.696-14.405-15.002-28.128-30.174-42.447-46.027-12.19-13.297-13.638-23.696-7.672-42.533C25.578 516.682 47.569 449.6 68.792 383.544a38.186 38.186 0 0 1 21.224-25.486c30.344-11.251 60.603-23.525 90.947-34.947 11.336-4.773 21.99-3.75 30.344 8.524 12.188 16.962 6.05 42.533-12.104 50.971-14.49 6.563-29.577 11.336-43.981 17.047-3.07-0.937-6.82 0.853-11.422 2.728z m628.615 461.808c62.904-16.194 125.04-33.071 187.264-49.18-20.457-46.198-40.317-90.606-59.921-135.014-0.767-2.728-5.37-4.773-8.353-3.75-28.128 6.648-56.853 14.234-84.895 20.712-6.052 1.96-8.268 4.773-9.802 12.359-4.603 29.321-9.973 59.495-14.49 88.73-2.984 20.713-6.052 42.448-9.803 66.143z m138.68-255.878c11.335 0 18.24 7.501 23.524 19.775 22.758 50.971 45.516 102.965 68.189 153.936 5.285 12.274 10.654 23.61 16.024 35.8 9.802 23.61 1.45 45.345-19.007 50.118-62.223 15.939-124.36 32.986-186.496 49.096-23.526 6.563-47.733 14.149-71.258 17.9-14.49 2.897-29.577-16.025-26.508-36.823l31.793-194.423c2.3-12.274 3.836-23.695 5.37-35.97 2.216-16.024 10.57-24.462 23.44-28.298a18398.624 18398.624 0 0 1 103.135-25.485c10.57-0.938 21.139-2.898 31.793-5.626z" p-id="1599"></path></svg>