<?xml version="1.0" standalone="no"?><!DOCTYPE svg PUBLIC "-//W3C//DTD SVG 1.1//EN" "http://www.w3.org/Graphics/SVG/1.1/DTD/svg11.dtd"><svg t="1569384842216" class="icon" viewBox="0 0 1024 1024" version="1.1" xmlns="http://www.w3.org/2000/svg" p-id="2376" xmlns:xlink="http://www.w3.org/1999/xlink" width="200" height="200"><defs><style type="text/css"></style></defs><path d="M577.3 959H446.7c-46.2 0-83.8-37.6-83.8-83.8v-38.5c-20.2-9.2-39.4-20.3-57.5-33.1l-33.3 19.2c-19.3 11.2-41.9 14.1-63.6 8.3-21.7-5.8-39.7-19.7-50.9-39L92.2 678.9c-23.1-40-9.3-91.4 30.7-114.5l33.3-19.2c-2-22-2-44.2 0.1-66.3l-33.4-19.3c-40-23.1-53.8-74.5-30.7-114.5l65.3-113.2c23.1-40 74.5-53.8 114.5-30.7l33.4 19.3c9-6.4 18.4-12.4 27.9-17.9 9.6-5.5 19.4-10.6 29.5-15.3v-38.5c0-46.2 37.6-83.8 83.8-83.8h130.7c46.2 0 83.8 37.6 83.8 83.8v38.6c20.2 9.2 39.4 20.3 57.5 33.1l33.3-19.2c40-23.1 91.4-9.3 114.5 30.7l65.3 113.2c11.2 19.3 14.1 41.9 8.3 63.6s-19.7 39.7-39 50.9l-33.3 19.2c2 22 2 44.2-0.1 66.3l33.4 19.3c40 23.1 53.8 74.5 30.7 114.5l-65.3 113.2c-11.2 19.3-29.2 33.2-50.9 39-21.7 5.8-44.2 2.9-63.6-8.3l-33.4-19.3c-9 6.4-18.4 12.4-27.9 17.9s-19.4 10.6-29.5 15.3v38.5c0 46.1-37.6 83.7-83.8 83.7zM310.7 726.5l17.1 13.8c23.6 19.1 50.1 34.3 78.5 45.3l20.5 7.9v81.7c0 10.7 9.1 19.8 19.8 19.8h130.7c10.7 0 19.8-9.1 19.8-19.8v-81.6l20.4-7.9c14.1-5.5 27.9-12.1 41-19.7 13.1-7.6 25.8-16.2 37.5-25.7l17.1-13.7 70.7 40.8c4.5 2.6 9.9 3.3 15 1.9s9.4-4.6 12.1-9.2l65.3-113.2c2.6-4.5 3.3-9.9 1.9-15-1.4-5.2-4.6-9.4-9.2-12.1L798.3 579l3.4-21.7c4.7-30.1 4.8-60.6 0.1-90.6l-3.4-21.7 70.7-40.8c4.5-2.6 7.8-6.9 9.2-12.1s0.7-10.5-1.9-15L811 263.9c-5.4-9.3-17.8-12.6-27.1-7.3l-70.7 40.8-17.1-13.8c-23.6-19.1-50.1-34.3-78.5-45.3l-20.5-7.9v-81.7c0-10.7-9.1-19.8-19.8-19.8H446.7c-10.7 0-19.8 9.1-19.8 19.8v81.6l-20.4 7.9c-14.1 5.5-27.9 12.1-41 19.7-13.1 7.6-25.8 16.2-37.5 25.7l-17.1 13.7-70.7-40.8c-9.3-5.4-21.7-2-27.1 7.3L147.8 377c-5.4 9.3-2 21.7 7.3 27.1l70.8 40.9-3.4 21.7c-4.7 30.1-4.8 60.6-0.1 90.6l3.4 21.7-70.7 40.8c-9.3 5.4-12.6 17.8-7.3 27.1L213 760.1c2.6 4.5 6.9 7.8 12.1 9.2 5.2 1.4 10.5 0.7 15-1.9l70.6-40.9z" fill="#e6e6e6" p-id="2377"></path><path d="M512 708.6c-108.4 0-196.6-88.2-196.6-196.6 0-108.4 88.2-196.6 196.6-196.6 108.4 0 196.6 88.2 196.6 196.6 0 108.4-88.2 196.6-196.6 196.6z m0-329.2c-73.1 0-132.6 59.5-132.6 132.6S438.9 644.6 512 644.6 644.6 585.1 644.6 512 585.1 379.4 512 379.4z" fill="#e6e6e6" p-id="2378"></path></svg>