<?xml version="1.0" standalone="no"?><!DOCTYPE svg PUBLIC "-//W3C//DTD SVG 1.1//EN" "http://www.w3.org/Graphics/SVG/1.1/DTD/svg11.dtd"><svg t="1569382586440" class="icon" viewBox="0 0 1024 1024" version="1.1" xmlns="http://www.w3.org/2000/svg" p-id="2204" xmlns:xlink="http://www.w3.org/1999/xlink" width="200" height="200"><defs><style type="text/css"></style></defs><path d="M652 568.1H371c-45.4 0-82.4-36.9-82.4-82.4v-56.2c0-45.4 36.9-82.4 82.4-82.4h281c45.4 0 82.4 36.9 82.4 82.4v56.2c0 45.4-36.9 82.4-82.4 82.4zM371 399.5c-16.6 0-30 13.5-30 30v56.2c0 16.6 13.5 30 30 30h281c16.6 0 30-13.5 30-30v-56.2c0-16.6-13.5-30-30-30H371z" fill="#e6e6e6" p-id="2205"></path><path d="M708.2 708.6H314.8c-14.4 0-26.2-11.7-26.2-26.2s11.7-26.2 26.2-26.2h393.4c14.4 0 26.2 11.7 26.2 26.2s-11.7 26.2-26.2 26.2zM708.2 821H314.8c-14.4 0-26.2-11.7-26.2-26.2s11.7-26.2 26.2-26.2h393.4c14.4 0 26.2 11.7 26.2 26.2S722.7 821 708.2 821z" fill="#e6e6e6" opacity=".498" p-id="2206"></path><path d="M736.3 150.5h-86.2V92.3c0-14.4-11.7-26.2-26.2-26.2s-26.2 11.7-26.2 26.2v58.1H425.3V92.3c0-14.4-11.7-26.2-26.2-26.2S373 77.9 373 92.3v58.1h-86.2c-76.4 0-138.6 62.2-138.6 138.6v533.9c0 76.4 62.2 138.6 138.6 138.6h449.6c76.4 0 138.6-62.2 138.6-138.6V289c-0.1-76.4-62.2-138.5-138.7-138.5z m86.3 672.4c0 47.6-38.7 86.2-86.2 86.2H286.7c-47.6 0-86.2-38.7-86.2-86.2V289c0-47.6 38.7-86.2 86.2-86.2H373v58.1c0 14.4 11.7 26.2 26.2 26.2s26.2-11.7 26.2-26.2v-58.1h172.5v58.1c0 14.4 11.7 26.2 26.2 26.2s26.2-11.7 26.2-26.2v-58.1h86.2c47.6 0 86.2 38.7 86.2 86.2v533.9z" fill="#e6e6e6" p-id="2207"></path></svg>