<?xml version="1.0" standalone="no"?><!DOCTYPE svg PUBLIC "-//W3C//DTD SVG 1.1//EN" "http://www.w3.org/Graphics/SVG/1.1/DTD/svg11.dtd"><svg t="1569381153653" class="icon" viewBox="0 0 1024 1024" version="1.1" xmlns="http://www.w3.org/2000/svg" p-id="1479" xmlns:xlink="http://www.w3.org/1999/xlink" width="200" height="200"><defs><style type="text/css"></style></defs><path d="M461.725 662.825c-0.017 0-0.033 0-0.051 0-13.866 0-26.416-5.631-35.491-14.73l-100.551-100.551c-9.097-9.097-14.723-21.664-14.723-35.543 0-27.762 22.507-50.267 50.267-50.267 13.879 0 26.448 5.628 35.543 14.723l65.005 65.005 165.554-165.554c9.097-9.097 21.664-14.723 35.543-14.723 27.762 0 50.267 22.507 50.267 50.267 0 13.879-5.628 26.448-14.723 35.543l-201.099 201.099c-9.076 9.1-21.627 14.731-35.493 14.731-0.019 0-0.037 0-0.054 0z" p-id="1480"></path><path d="M512 964.474c-0.003 0-0.007 0-0.018 0-5.826 0-11.421-0.994-16.623-2.821-15.435-5.275-385.558-136.441-385.558-499.927v-191.045c0.005-20.175 11.901-37.574 29.055-45.572l352.229-161.007c6.138-2.879 13.331-4.563 20.914-4.563s14.777 1.68 21.225 4.691l351.617 160.75c17.462 8.131 29.356 25.527 29.361 45.706v191.039c0 365.248-370.325 494.756-386.111 500.084-4.811 1.687-10.356 2.663-16.13 2.665zM210.351 303.008v158.719c0 256.1 236.141 371.53 301.75 398.678 65.61-26.896 301.55-141.424 301.55-398.678v-158.719l-301.649-137.904-301.649 137.904z" p-id="1481"></path></svg>