<?xml version="1.0" standalone="no"?><!DOCTYPE svg PUBLIC "-//W3C//DTD SVG 1.1//EN" "http://www.w3.org/Graphics/SVG/1.1/DTD/svg11.dtd"><svg t="1569393285806" class="icon" viewBox="0 0 1024 1024" version="1.1" xmlns="http://www.w3.org/2000/svg" p-id="630" xmlns:xlink="http://www.w3.org/1999/xlink" width="200" height="200"><defs><style type="text/css"></style></defs><path d="M523.0592 925.312H182.3232a38.4 38.4 0 0 1-38.4-38.4V158.208a38.4 38.4 0 0 1 38.4-38.4h340.736a38.4 38.4 0 0 1 38.4 38.4v728.6784a38.4 38.4 0 0 1-38.4 38.4256z m-302.336-76.8h263.936V196.608H220.7232v651.904z" p-id="631" fill="#e6e6e6"></path><path d="M923.3152 925.312H122.7776a38.4 38.4 0 1 1 0-76.8h800.5376a38.4 38.4 0 0 1 0 76.8z" p-id="632" fill="#e6e6e6"></path><path d="M859.3408 925.312a38.4 38.4 0 0 1-38.4-38.4V486.8864h-199.7056a38.4 38.4 0 1 1 0-76.8h238.1056a38.4 38.4 0 0 1 38.4 38.4v438.4a38.4 38.4 0 0 1-38.4 38.4256zM278.6304 245.0944h48.5888v48.5888h-48.5888zM278.6304 342.2464h48.5888v48.5888h-48.5888zM378.1632 245.0944h48.5888v48.5888h-48.5888zM378.1632 342.2464h48.5888v48.5888h-48.5888z" p-id="633" fill="#e6e6e6"></path></svg>